<svg xmlns="http://www.w3.org/2000/svg" version="1.1" xmlns:xlink="http://www.w3.org/1999/xlink" xmlns:svgjs="http://svgjs.dev/svgjs" width="1500" height="1537" viewBox="0 0 1500 1537"><g transform="matrix(1,0,0,1,-0.398103049756628,0.6222672064776589)"><svg viewBox="0 0 241 247" data-background-color="#243837" preserveAspectRatio="xMidYMid meet" height="1537" width="1500" xmlns="http://www.w3.org/2000/svg" xmlns:xlink="http://www.w3.org/1999/xlink"><g id="tight-bounds" transform="matrix(1,0,0,1,0.06396188999423202,-0.09999999999999432)"><svg viewBox="0 0 240.87207622001154 247.2" height="247.2" width="240.87207622001154"><g><svg></svg></g><g><svg viewBox="0 0 240.87207622001154 247.2" height="247.2" width="240.87207622001154"><g transform="matrix(1,0,0,1,0,47.215199999999996)"><svg viewBox="0 0 240.87207622001154 152.7696" height="152.7696" width="240.87207622001154"><g><svg viewBox="0 0 245.65351679999995 155.80215892626342" height="152.7696" width="240.87207622001154"><g><rect width="245.65351679999995" height="4.772014349971279" x="0" y="85.62201740321765" fill="#ffffff" opacity="1" stroke-width="0" stroke="transparent" fill-opacity="1" class="rect-yte-0" data-fill-palette-color="primary" rx="1%" id="yte-0" data-palette-color="#ffffff"></rect></g><g transform="matrix(1,0,0,1,0.6110783999999825,102.88621591541741)"><svg viewBox="0 0 244.43135999999998 52.91594301084599" height="52.91594301084599" width="244.43135999999998"><g id="textblocktransform"><svg viewBox="0 0 244.43135999999998 52.91594301084599" height="52.91594301084599" width="244.43135999999998" id="textblock"><g><svg viewBox="0 0 244.43135999999998 52.91594301084599" height="52.91594301084599" width="244.43135999999998"><g transform="matrix(1,0,0,1,0,0)"><svg width="244.43135999999998" viewBox="3.65 -37.7 230.48 49.900000000000006" height="52.91594301084599" data-palette-color="#ffffff"><g class="wordmark-text-0" data-fill-palette-color="primary" id="text-0"><path d="M27.85 0L23.45 0 22.8-3.45Q21-1.45 18.75-0.45 16.5 0.55 13.7 0.55L13.7 0.55Q8.85 0.55 6.25-3.2 3.65-6.95 3.65-12.8L3.65-12.8Q3.65-16.8 5.08-19.95 6.5-23.1 9.18-24.9 11.85-26.7 15.55-26.7L15.55-26.7Q17.35-26.7 18.95-26.28 20.55-25.85 22.35-25.05L22.35-25.05 22.35-37.7 26.75-37.7 26.75-5.8 27.85 0ZM14.4-3.5Q16.8-3.5 18.68-4.48 20.55-5.45 22.35-7.35L22.35-7.35 22.35-21.7Q19.15-22.8 16-22.8L16-22.8Q12.35-22.8 10.38-20.03 8.4-17.25 8.4-12.9L8.4-12.9Q8.4-8.75 9.83-6.13 11.25-3.5 14.4-3.5L14.4-3.5ZM58.6-13.05L58.6-11.6 40.1-11.6Q40.5-7.75 42.67-5.48 44.85-3.2 48.6-3.2L48.6-3.2Q50.85-3.2 52.97-4.13 55.1-5.05 57.3-6.85L57.3-6.85 57.5-6.85 57.5-2.45Q55.3-0.85 53.15-0.13 51 0.6 48.55 0.6L48.55 0.6Q44.55 0.6 41.6-1.15 38.65-2.9 37.07-6.03 35.5-9.15 35.5-13.2L35.5-13.2Q35.5-17.05 36.92-20.13 38.35-23.2 41-24.95 43.65-26.7 47.2-26.7L47.2-26.7Q50.8-26.7 53.37-24.93 55.95-23.15 57.27-20.05 58.6-16.95 58.6-13.05L58.6-13.05ZM47.25-23.05Q44.15-23.05 42.3-20.8 40.45-18.55 40.1-15L40.1-15 54.05-15Q53.7-18.65 52.02-20.85 50.35-23.05 47.25-23.05L47.25-23.05ZM79.55-26.7Q82.95-26.7 85.34-24.9 87.75-23.1 88.97-20 90.2-16.9 90.2-13L90.2-13Q90.2-9.1 88.77-6.03 87.34-2.95 84.67-1.2 82 0.55 78.34 0.55L78.34 0.55Q76.5 0.55 74.9 0.15 73.3-0.25 71.5-1L71.5-1 71.5 0 67.09 0 67.09-37.7 71.5-37.7 71.5-23.3Q74.75-26.7 79.55-26.7L79.55-26.7ZM77.9-3.35Q81.5-3.35 83.47-6.05 85.45-8.75 85.45-13L85.45-13Q85.45-17.25 83.92-19.95 82.4-22.65 79.15-22.65L79.15-22.65Q76.84-22.65 75.02-21.7 73.2-20.75 71.5-18.9L71.5-18.9 71.5-4.35Q74.75-3.35 77.9-3.35L77.9-3.35ZM121.34 0L116.94 0 116.24-3.65Q113.94-1.5 111.82-0.45 109.69 0.6 106.84 0.6L106.84 0.6Q103.29 0.6 101.32-1.75 99.34-4.1 99.34-8L99.34-8 99.34-26.1 103.74-26.1 103.74-8.6Q103.74-6.2 104.84-4.78 105.94-3.35 107.99-3.35L107.99-3.35Q110.34-3.35 112.12-4.2 113.89-5.05 115.84-6.75L115.84-6.75 115.84-26.1 120.24-26.1 120.24-5.8 121.34 0ZM149.09-26.15L153.49-26.15 152.39-20.35 152.39-1.7Q152.39 4.9 149.34 8.55 146.29 12.2 140.29 12.2L140.29 12.2Q136.94 12.2 134.79 11.55 132.64 10.9 130.34 8.95L130.34 8.95 130.34 4.5Q132.79 6.55 134.94 7.33 137.09 8.1 140.29 8.1L140.29 8.1Q144.14 8.1 146.06 5.68 147.99 3.25 147.99-1.1L147.99-1.1 147.99-2.4Q146.34-1.3 144.67-0.83 142.99-0.35 140.69-0.35L140.69-0.35Q135.04-0.35 132.17-3.75 129.29-7.15 129.29-13.3L129.29-13.3Q129.29-19.65 132.29-23.18 135.29-26.7 141.19-26.7L141.19-26.7Q143.34-26.7 144.92-26.28 146.49-25.85 148.74-24.85L148.74-24.85 149.09-26.15ZM140.74-4.4Q142.94-4.4 144.59-4.95 146.24-5.5 147.99-6.7L147.99-6.7 147.99-21.8Q146.39-22.35 144.97-22.58 143.54-22.8 141.69-22.8L141.69-22.8Q137.79-22.8 135.92-20.3 134.04-17.8 134.04-13.35L134.04-13.35Q134.04-4.4 140.74-4.4L140.74-4.4ZM167.64-35.4L167.64-26.1 174.84-26.1 174.84-22.3 167.64-22.3 167.64-7.35Q167.64-5.5 168.46-4.38 169.29-3.25 170.89-3.25L170.89-3.25Q171.99-3.25 172.86-3.48 173.74-3.7 174.84-4.2L174.84-4.2 174.84-0.3Q173.69 0.25 172.64 0.43 171.59 0.6 170.09 0.6L170.09 0.6Q166.89 0.6 165.06-1.45 163.24-3.5 163.24-6.9L163.24-6.9 163.24-22.3 158.24-22.3 158.24-26.1 163.24-26.1 163.24-33.1 167.64-35.4ZM203.59-13.05L203.59-11.6 185.09-11.6Q185.49-7.75 187.66-5.48 189.84-3.2 193.59-3.2L193.59-3.2Q195.84-3.2 197.96-4.13 200.09-5.05 202.29-6.85L202.29-6.85 202.49-6.85 202.49-2.45Q200.29-0.85 198.14-0.13 195.99 0.6 193.54 0.6L193.54 0.6Q189.54 0.6 186.59-1.15 183.64-2.9 182.06-6.03 180.49-9.15 180.49-13.2L180.49-13.2Q180.49-17.05 181.91-20.13 183.34-23.2 185.99-24.95 188.64-26.7 192.19-26.7L192.19-26.7Q195.79-26.7 198.36-24.93 200.94-23.15 202.26-20.05 203.59-16.95 203.59-13.05L203.59-13.05ZM192.24-23.05Q189.14-23.05 187.29-20.8 185.44-18.55 185.09-15L185.09-15 199.04-15Q198.69-18.65 197.01-20.85 195.34-23.05 192.24-23.05L192.24-23.05ZM228.73 0L221.03-12.2 216.93-7.6 216.93 0 212.53 0 212.53-37.7 216.93-37.7 216.93-13.35 228.33-26.1 233.53-26.1 223.98-15.45 234.13 0 228.73 0Z" fill="#ffffff" data-fill-palette-color="primary"></path></g></svg></g></svg></g></svg></g></svg></g><g transform="matrix(1,0,0,1,73.22949608068413,0)"><svg viewBox="0 0 99.1945246386317 73.12983324098917" height="73.12983324098917" width="99.1945246386317"><g><svg xmlns="http://www.w3.org/2000/svg" xmlns:xlink="http://www.w3.org/1999/xlink" version="1.1" x="0" y="0" viewBox="9.308 20 81.38499999999999 60" enable-background="new 0 0 100 100" xml:space="preserve" height="73.12983324098917" width="99.1945246386317" class="icon-icon-0" data-fill-palette-color="accent" id="icon-0"><g fill="#ffffff" data-fill-palette-color="accent"><g fill="#ffffff" data-fill-palette-color="accent"><g fill="#ffffff" data-fill-palette-color="accent"><g fill="#ffffff" data-fill-palette-color="accent"><path d="M35.194 73.077H15.575A6.275 6.275 0 0 1 9.308 66.808V26.267A6.275 6.275 0 0 1 15.575 20H70.808A6.275 6.275 0 0 1 77.075 26.267V28.923L75.116 30.396V26.267A4.31 4.31 0 0 0 70.808 21.959H15.575A4.31 4.31 0 0 0 11.267 26.267V66.808A4.314 4.314 0 0 0 15.575 71.118H35.784zM48.633 71.118H70.808A4.314 4.314 0 0 0 75.116 66.808V44.593L77.075 43.042V66.808A6.275 6.275 0 0 1 70.808 73.077H47.126z" fill="#ffffff" data-fill-palette-color="accent"></path></g><g fill="#ffffff" data-fill-palette-color="accent"><path d="M24.658 36.495L17.045 33.161C16.052 32.734 15.933 32.216 15.933 31.671 15.933 30.915 16.478 30.395 17.234 30.395 17.565 30.395 17.944 30.443 18.535 30.726L28.157 35.147C28.654 35.384 29.031 35.905 29.031 36.496S28.654 37.606 28.157 37.843L18.535 42.264C17.944 42.549 17.565 42.595 17.234 42.595 16.478 42.595 15.933 42.075 15.933 41.319 15.933 40.776 16.052 40.255 17.045 39.829z" fill="#ffffff" data-fill-palette-color="accent"></path></g></g><g fill="#ffffff" data-fill-palette-color="accent"><g fill="#ffffff" data-fill-palette-color="accent"><path d="M76.884 43.505C76.354 43.505 75.857 43.298 75.484 42.925L69.864 37.303A1.96 1.96 0 0 1 69.283 35.907C69.283 35.377 69.489 34.878 69.864 34.503L81.69 22.677C82.444 21.925 83.745 21.933 84.491 22.677L90.111 28.297C90.486 28.67 90.693 29.167 90.693 29.697S90.486 30.724 90.11 31.099L78.284 42.925A1.97 1.97 0 0 1 76.884 43.505M83.105 24.061L71.248 35.887 76.884 41.545C76.894 41.545 76.897 41.541 76.901 41.537L88.725 29.711z" fill="#ffffff" data-fill-palette-color="accent"></path></g><g fill="#ffffff" data-fill-palette-color="accent"><path d="M34.5 80C33.96 80 33.465 79.759 33.142 79.342A1.75 1.75 0 0 1 32.849 77.814L34.927 69.799C35.015 69.472 35.187 69.177 35.426 68.942L76.564 27.804C77.232 27.133 78.383 27.092 79.015 27.726L85.062 33.773C85.714 34.425 85.682 35.525 84.987 36.223L43.841 77.368A1.9 1.9 0 0 1 42.992 77.858L34.973 79.939C34.816 79.979 34.657 80 34.5 80M77.796 29.276L36.805 70.332 34.837 77.949 42.495 75.961 83.48 34.959z" fill="#ffffff" data-fill-palette-color="accent"></path></g></g><path d="M39.376 73.46A0.98 0.98 0 0 1 38.683 71.788L80.187 30.283A0.978 0.978 0 1 1 81.572 31.668L40.069 73.173A0.98 0.98 0 0 1 39.376 73.46" fill="#ffffff" data-fill-palette-color="accent"></path></g></g></svg></g></svg></g><g></g></svg></g></svg></g><path d="M0 41.215L0 1 240.872 1 240.872 41.215 236.193 41.215 236.193 5.679 4.679 5.679 4.679 41.215 0 41.215M0 205.985L0 246.2 240.872 246.2 240.872 205.985 236.193 205.985 236.193 241.521 4.679 241.521 4.679 205.985 0 205.985" fill="#fe7833" stroke="transparent" data-fill-palette-color="tertiary"></path></svg></g><defs></defs></svg><rect width="240.87207622001154" height="247.2" fill="none" stroke="none" visibility="hidden"></rect></g></svg></g></svg>